<mxfile host="Electron" modified="2023-06-11T09:17:55.437Z" agent="Mozilla/5.0 (Windows NT 10.0; Win64; x64) AppleWebKit/537.36 (KHTML, like Gecko) draw.io/21.2.8 Chrome/112.0.5615.165 Electron/24.2.0 Safari/537.36" etag="YMEDKJeCb19jKrQr7nx0" version="21.2.8" type="device">
  <diagram name="PÃ¡gina-1" id="VMTsFLG1KmO15SLVDoYl">
    <mxGraphModel dx="3754" dy="2411" grid="1" gridSize="10" guides="1" tooltips="1" connect="1" arrows="1" fold="1" page="1" pageScale="1" pageWidth="827" pageHeight="1169" math="0" shadow="0">
      <root>
        <mxCell id="0" />
        <mxCell id="1" parent="0" />
        <mxCell id="HJOw_oaYYQoyo_7_w0L2-3" value="" style="rounded=0;whiteSpace=wrap;html=1;fontStyle=1" parent="1" vertex="1">
          <mxGeometry x="-1280" y="-40" width="1800" height="1240" as="geometry" />
        </mxCell>
        <mxCell id="faG1PO36J3ovFhJvLUZU-56" value="" style="rounded=0;whiteSpace=wrap;html=1;fontStyle=1" parent="1" vertex="1">
          <mxGeometry x="260" y="20" width="210" height="710" as="geometry" />
        </mxCell>
        <mxCell id="faG1PO36J3ovFhJvLUZU-53" value="" style="rounded=0;whiteSpace=wrap;html=1;fontStyle=1" parent="1" vertex="1">
          <mxGeometry x="-430" y="20" width="340" height="1150" as="geometry" />
        </mxCell>
        <mxCell id="faG1PO36J3ovFhJvLUZU-52" value="" style="rounded=0;whiteSpace=wrap;html=1;fontStyle=1" parent="1" vertex="1">
          <mxGeometry x="-770" y="20" width="210" height="970" as="geometry" />
        </mxCell>
        <mxCell id="faG1PO36J3ovFhJvLUZU-4" value="CONTROLLERS" style="text;html=1;align=center;verticalAlign=middle;resizable=0;points=[];autosize=1;strokeColor=none;fillColor=none;fontStyle=1;fontSize=22;" parent="1" vertex="1">
          <mxGeometry x="-760" y="30" width="190" height="40" as="geometry" />
        </mxCell>
        <mxCell id="faG1PO36J3ovFhJvLUZU-39" style="edgeStyle=orthogonalEdgeStyle;rounded=0;orthogonalLoop=1;jettySize=auto;html=1;fontStyle=1" parent="1" source="faG1PO36J3ovFhJvLUZU-12" target="faG1PO36J3ovFhJvLUZU-38" edge="1">
          <mxGeometry relative="1" as="geometry" />
        </mxCell>
        <mxCell id="faG1PO36J3ovFhJvLUZU-12" value="USER CONTROLLER" style="whiteSpace=wrap;html=1;aspect=fixed;fontStyle=1;fontSize=15;" parent="1" vertex="1">
          <mxGeometry x="-730" y="90" width="130" height="130" as="geometry" />
        </mxCell>
        <mxCell id="faG1PO36J3ovFhJvLUZU-45" style="edgeStyle=orthogonalEdgeStyle;rounded=0;orthogonalLoop=1;jettySize=auto;html=1;fontStyle=1" parent="1" source="faG1PO36J3ovFhJvLUZU-34" target="faG1PO36J3ovFhJvLUZU-44" edge="1">
          <mxGeometry relative="1" as="geometry" />
        </mxCell>
        <mxCell id="faG1PO36J3ovFhJvLUZU-48" style="edgeStyle=orthogonalEdgeStyle;rounded=0;orthogonalLoop=1;jettySize=auto;html=1;entryX=0;entryY=0.75;entryDx=0;entryDy=0;fontStyle=1" parent="1" source="faG1PO36J3ovFhJvLUZU-34" target="faG1PO36J3ovFhJvLUZU-42" edge="1">
          <mxGeometry relative="1" as="geometry">
            <Array as="points">
              <mxPoint x="-510" y="675" />
              <mxPoint x="-510" y="538" />
            </Array>
          </mxGeometry>
        </mxCell>
        <mxCell id="faG1PO36J3ovFhJvLUZU-34" value="SENSOR DATA CONTROLLER" style="whiteSpace=wrap;html=1;aspect=fixed;fontStyle=1;fontSize=15;" parent="1" vertex="1">
          <mxGeometry x="-730" y="610" width="130" height="130" as="geometry" />
        </mxCell>
        <mxCell id="faG1PO36J3ovFhJvLUZU-50" style="edgeStyle=orthogonalEdgeStyle;rounded=0;orthogonalLoop=1;jettySize=auto;html=1;fontStyle=1" parent="1" source="faG1PO36J3ovFhJvLUZU-35" target="faG1PO36J3ovFhJvLUZU-49" edge="1">
          <mxGeometry relative="1" as="geometry" />
        </mxCell>
        <mxCell id="faG1PO36J3ovFhJvLUZU-35" value="DATA&lt;br&gt;CONTROLLER" style="whiteSpace=wrap;html=1;aspect=fixed;fontStyle=1;fontSize=15;" parent="1" vertex="1">
          <mxGeometry x="-730" y="800" width="130" height="130" as="geometry" />
        </mxCell>
        <mxCell id="faG1PO36J3ovFhJvLUZU-36" value="SIREN INFO CONTROLLER" style="whiteSpace=wrap;html=1;aspect=fixed;fontStyle=1;fontSize=15;" parent="1" vertex="1">
          <mxGeometry x="-730" y="440" width="130" height="130" as="geometry" />
        </mxCell>
        <mxCell id="faG1PO36J3ovFhJvLUZU-41" style="edgeStyle=orthogonalEdgeStyle;rounded=0;orthogonalLoop=1;jettySize=auto;html=1;fontStyle=1" parent="1" source="faG1PO36J3ovFhJvLUZU-37" target="faG1PO36J3ovFhJvLUZU-40" edge="1">
          <mxGeometry relative="1" as="geometry" />
        </mxCell>
        <mxCell id="faG1PO36J3ovFhJvLUZU-47" style="edgeStyle=orthogonalEdgeStyle;rounded=0;orthogonalLoop=1;jettySize=auto;html=1;entryX=0;entryY=0.25;entryDx=0;entryDy=0;fontStyle=1" parent="1" source="faG1PO36J3ovFhJvLUZU-37" target="faG1PO36J3ovFhJvLUZU-42" edge="1">
          <mxGeometry relative="1" as="geometry">
            <Array as="points">
              <mxPoint x="-510" y="325" />
              <mxPoint x="-510" y="473" />
            </Array>
          </mxGeometry>
        </mxCell>
        <mxCell id="faG1PO36J3ovFhJvLUZU-37" value="DEVICE CONTROLLER" style="whiteSpace=wrap;html=1;aspect=fixed;fontStyle=1;fontSize=15;" parent="1" vertex="1">
          <mxGeometry x="-730" y="260" width="130" height="130" as="geometry" />
        </mxCell>
        <mxCell id="faG1PO36J3ovFhJvLUZU-58" style="edgeStyle=orthogonalEdgeStyle;rounded=0;orthogonalLoop=1;jettySize=auto;html=1;fontStyle=1" parent="1" source="faG1PO36J3ovFhJvLUZU-38" target="faG1PO36J3ovFhJvLUZU-55" edge="1">
          <mxGeometry relative="1" as="geometry" />
        </mxCell>
        <mxCell id="faG1PO36J3ovFhJvLUZU-38" value="USER &lt;br&gt;SERVICE" style="whiteSpace=wrap;html=1;aspect=fixed;fontStyle=1;fontSize=15;" parent="1" vertex="1">
          <mxGeometry x="-320" y="90" width="130" height="130" as="geometry" />
        </mxCell>
        <mxCell id="faG1PO36J3ovFhJvLUZU-61" style="edgeStyle=orthogonalEdgeStyle;rounded=0;orthogonalLoop=1;jettySize=auto;html=1;fontStyle=1" parent="1" source="faG1PO36J3ovFhJvLUZU-40" target="faG1PO36J3ovFhJvLUZU-60" edge="1">
          <mxGeometry relative="1" as="geometry" />
        </mxCell>
        <mxCell id="faG1PO36J3ovFhJvLUZU-62" style="edgeStyle=orthogonalEdgeStyle;rounded=0;orthogonalLoop=1;jettySize=auto;html=1;entryX=0;entryY=0.75;entryDx=0;entryDy=0;fontStyle=1" parent="1" source="faG1PO36J3ovFhJvLUZU-40" target="faG1PO36J3ovFhJvLUZU-55" edge="1">
          <mxGeometry relative="1" as="geometry">
            <Array as="points">
              <mxPoint y="325" />
              <mxPoint y="188" />
            </Array>
          </mxGeometry>
        </mxCell>
        <mxCell id="faG1PO36J3ovFhJvLUZU-40" value="DEVICE &lt;br&gt;SERVICE" style="whiteSpace=wrap;html=1;aspect=fixed;fontStyle=1;fontSize=15;" parent="1" vertex="1">
          <mxGeometry x="-320" y="260" width="130" height="130" as="geometry" />
        </mxCell>
        <mxCell id="-1UOzwiWxuvySdNp6yXi-1" style="edgeStyle=orthogonalEdgeStyle;rounded=0;orthogonalLoop=1;jettySize=auto;html=1;entryX=0;entryY=0.75;entryDx=0;entryDy=0;fontStyle=1" parent="1" source="faG1PO36J3ovFhJvLUZU-42" target="faG1PO36J3ovFhJvLUZU-60" edge="1">
          <mxGeometry relative="1" as="geometry">
            <Array as="points">
              <mxPoint y="505" />
              <mxPoint y="358" />
            </Array>
          </mxGeometry>
        </mxCell>
        <mxCell id="faG1PO36J3ovFhJvLUZU-42" value="DEVICE ERROR&lt;br&gt;SERVICE" style="whiteSpace=wrap;html=1;aspect=fixed;fontStyle=1;fontSize=15;" parent="1" vertex="1">
          <mxGeometry x="-320" y="440" width="130" height="130" as="geometry" />
        </mxCell>
        <mxCell id="-1UOzwiWxuvySdNp6yXi-3" style="edgeStyle=orthogonalEdgeStyle;rounded=0;orthogonalLoop=1;jettySize=auto;html=1;entryX=0;entryY=0.5;entryDx=0;entryDy=0;fontStyle=1" parent="1" source="faG1PO36J3ovFhJvLUZU-44" target="-1UOzwiWxuvySdNp6yXi-2" edge="1">
          <mxGeometry relative="1" as="geometry" />
        </mxCell>
        <mxCell id="-1UOzwiWxuvySdNp6yXi-5" style="edgeStyle=orthogonalEdgeStyle;rounded=0;orthogonalLoop=1;jettySize=auto;html=1;entryX=0;entryY=0.75;entryDx=0;entryDy=0;fontStyle=1" parent="1" source="faG1PO36J3ovFhJvLUZU-44" target="faG1PO36J3ovFhJvLUZU-40" edge="1">
          <mxGeometry relative="1" as="geometry">
            <mxPoint x="-120" y="410" as="targetPoint" />
            <Array as="points">
              <mxPoint x="-140" y="675" />
              <mxPoint x="-140" y="410" />
              <mxPoint x="-350" y="410" />
              <mxPoint x="-350" y="358" />
            </Array>
          </mxGeometry>
        </mxCell>
        <mxCell id="-1UOzwiWxuvySdNp6yXi-8" style="edgeStyle=orthogonalEdgeStyle;rounded=0;orthogonalLoop=1;jettySize=auto;html=1;entryX=0;entryY=0.5;entryDx=0;entryDy=0;fontStyle=1" parent="1" source="faG1PO36J3ovFhJvLUZU-44" target="-1UOzwiWxuvySdNp6yXi-7" edge="1">
          <mxGeometry relative="1" as="geometry" />
        </mxCell>
        <mxCell id="-1UOzwiWxuvySdNp6yXi-13" style="edgeStyle=orthogonalEdgeStyle;rounded=0;orthogonalLoop=1;jettySize=auto;html=1;entryX=0;entryY=0.5;entryDx=0;entryDy=0;fontStyle=1" parent="1" source="faG1PO36J3ovFhJvLUZU-44" target="-1UOzwiWxuvySdNp6yXi-12" edge="1">
          <mxGeometry relative="1" as="geometry">
            <Array as="points">
              <mxPoint x="-160" y="675" />
              <mxPoint x="-160" y="1150" />
              <mxPoint x="-380" y="1150" />
              <mxPoint x="-380" y="1045" />
            </Array>
          </mxGeometry>
        </mxCell>
        <mxCell id="faG1PO36J3ovFhJvLUZU-44" value="SENSOR DATA&lt;br&gt;SERVICE" style="whiteSpace=wrap;html=1;aspect=fixed;fontStyle=1;fontSize=15;" parent="1" vertex="1">
          <mxGeometry x="-320" y="610" width="130" height="130" as="geometry" />
        </mxCell>
        <mxCell id="-1UOzwiWxuvySdNp6yXi-9" style="edgeStyle=orthogonalEdgeStyle;rounded=0;orthogonalLoop=1;jettySize=auto;html=1;entryX=0;entryY=0.75;entryDx=0;entryDy=0;fontStyle=1" parent="1" source="faG1PO36J3ovFhJvLUZU-49" target="faG1PO36J3ovFhJvLUZU-55" edge="1">
          <mxGeometry relative="1" as="geometry">
            <Array as="points">
              <mxPoint x="110" y="890" />
              <mxPoint x="110" y="188" />
            </Array>
          </mxGeometry>
        </mxCell>
        <mxCell id="-1UOzwiWxuvySdNp6yXi-11" style="edgeStyle=orthogonalEdgeStyle;rounded=0;orthogonalLoop=1;jettySize=auto;html=1;entryX=0;entryY=0.5;entryDx=0;entryDy=0;fontStyle=1" parent="1" source="faG1PO36J3ovFhJvLUZU-49" target="faG1PO36J3ovFhJvLUZU-60" edge="1">
          <mxGeometry relative="1" as="geometry">
            <Array as="points">
              <mxPoint x="160" y="890" />
              <mxPoint x="160" y="325" />
            </Array>
          </mxGeometry>
        </mxCell>
        <mxCell id="faG1PO36J3ovFhJvLUZU-49" value="DATA ERASER&lt;br&gt;SERVICE" style="whiteSpace=wrap;html=1;aspect=fixed;fontStyle=1;fontSize=15;" parent="1" vertex="1">
          <mxGeometry x="-320" y="800" width="130" height="130" as="geometry" />
        </mxCell>
        <mxCell id="faG1PO36J3ovFhJvLUZU-54" value="SERVICES" style="text;html=1;align=center;verticalAlign=middle;resizable=0;points=[];autosize=1;strokeColor=none;fillColor=none;fontStyle=1;fontSize=22;" parent="1" vertex="1">
          <mxGeometry x="-320" y="30" width="130" height="40" as="geometry" />
        </mxCell>
        <mxCell id="faG1PO36J3ovFhJvLUZU-55" value="USER DATA&lt;br&gt;REPO" style="whiteSpace=wrap;html=1;aspect=fixed;fontStyle=1;fontSize=15;" parent="1" vertex="1">
          <mxGeometry x="300" y="90" width="130" height="130" as="geometry" />
        </mxCell>
        <mxCell id="faG1PO36J3ovFhJvLUZU-57" value="REPOSITORIES" style="text;html=1;align=center;verticalAlign=middle;resizable=0;points=[];autosize=1;strokeColor=none;fillColor=none;fontStyle=1;fontSize=22;" parent="1" vertex="1">
          <mxGeometry x="270" y="30" width="190" height="40" as="geometry" />
        </mxCell>
        <mxCell id="faG1PO36J3ovFhJvLUZU-60" value="DEVICE DATA&lt;br&gt;REPO" style="whiteSpace=wrap;html=1;aspect=fixed;fontStyle=1;fontSize=15;" parent="1" vertex="1">
          <mxGeometry x="290" y="260" width="130" height="130" as="geometry" />
        </mxCell>
        <mxCell id="-1UOzwiWxuvySdNp6yXi-2" value="SENSOR METADATA&lt;br&gt;REPO" style="whiteSpace=wrap;html=1;aspect=fixed;fontStyle=1;fontSize=15;" parent="1" vertex="1">
          <mxGeometry x="290" y="420" width="130" height="130" as="geometry" />
        </mxCell>
        <mxCell id="-1UOzwiWxuvySdNp6yXi-7" value="SENSOR DATA&lt;br&gt;REPO" style="whiteSpace=wrap;html=1;aspect=fixed;fontStyle=1;fontSize=15;" parent="1" vertex="1">
          <mxGeometry x="290" y="570" width="130" height="130" as="geometry" />
        </mxCell>
        <mxCell id="-1UOzwiWxuvySdNp6yXi-12" value="EMAIL SENDER&lt;br&gt;SERVICE" style="whiteSpace=wrap;html=1;aspect=fixed;fontStyle=1;fontSize=15;" parent="1" vertex="1">
          <mxGeometry x="-320" y="980" width="130" height="130" as="geometry" />
        </mxCell>
        <mxCell id="HJOw_oaYYQoyo_7_w0L2-6" style="edgeStyle=orthogonalEdgeStyle;rounded=0;orthogonalLoop=1;jettySize=auto;html=1;fontStyle=1" parent="1" source="HJOw_oaYYQoyo_7_w0L2-1" target="faG1PO36J3ovFhJvLUZU-52" edge="1">
          <mxGeometry relative="1" as="geometry" />
        </mxCell>
        <mxCell id="HJOw_oaYYQoyo_7_w0L2-1" value="MIDDLEWARES" style="whiteSpace=wrap;html=1;aspect=fixed;fontStyle=1;fontSize=14;" parent="1" vertex="1">
          <mxGeometry x="-1030" y="440" width="130" height="130" as="geometry" />
        </mxCell>
        <mxCell id="HJOw_oaYYQoyo_7_w0L2-7" style="edgeStyle=orthogonalEdgeStyle;rounded=0;orthogonalLoop=1;jettySize=auto;html=1;exitX=1;exitY=0.5;exitDx=0;exitDy=0;fontStyle=1" parent="1" source="HJOw_oaYYQoyo_7_w0L2-2" target="HJOw_oaYYQoyo_7_w0L2-3" edge="1">
          <mxGeometry relative="1" as="geometry">
            <mxPoint x="-1370" y="565" as="sourcePoint" />
            <Array as="points" />
          </mxGeometry>
        </mxCell>
        <mxCell id="HJOw_oaYYQoyo_7_w0L2-2" value="USER" style="whiteSpace=wrap;html=1;aspect=fixed;fontStyle=1;fontSize=15;" parent="1" vertex="1">
          <mxGeometry x="-1490" y="515" width="130" height="130" as="geometry" />
        </mxCell>
        <mxCell id="HJOw_oaYYQoyo_7_w0L2-4" value="SPRING SERVER" style="text;html=1;align=center;verticalAlign=middle;resizable=0;points=[];autosize=1;strokeColor=none;fillColor=none;fontStyle=1;fontSize=22;" parent="1" vertex="1">
          <mxGeometry x="-1240" y="-20" width="200" height="40" as="geometry" />
        </mxCell>
        <mxCell id="-YmSZKqu0fRn_ai4a4Oy-2" style="edgeStyle=orthogonalEdgeStyle;rounded=0;orthogonalLoop=1;jettySize=auto;html=1;fontStyle=1" parent="1" source="-YmSZKqu0fRn_ai4a4Oy-1" target="HJOw_oaYYQoyo_7_w0L2-1" edge="1">
          <mxGeometry relative="1" as="geometry" />
        </mxCell>
        <mxCell id="-YmSZKqu0fRn_ai4a4Oy-1" value="AUTHENTICATION&lt;br&gt;AND&lt;br&gt;AUTHORIZATION" style="whiteSpace=wrap;html=1;aspect=fixed;fontStyle=1;fontSize=14;" parent="1" vertex="1">
          <mxGeometry x="-1250" y="440" width="130" height="130" as="geometry" />
        </mxCell>
        <mxCell id="l5B6pVcyyVN4LYzykeho-1" value="" style="rounded=0;whiteSpace=wrap;html=1;fontStyle=1;fontSize=14;" vertex="1" parent="1">
          <mxGeometry x="-1280" y="-40" width="1800" height="1240" as="geometry" />
        </mxCell>
        <mxCell id="l5B6pVcyyVN4LYzykeho-2" value="" style="rounded=0;whiteSpace=wrap;html=1;fontStyle=1;fontSize=14;" vertex="1" parent="1">
          <mxGeometry x="260" y="20" width="210" height="710" as="geometry" />
        </mxCell>
        <mxCell id="l5B6pVcyyVN4LYzykeho-3" value="" style="rounded=0;whiteSpace=wrap;html=1;fontStyle=1;fontSize=14;" vertex="1" parent="1">
          <mxGeometry x="-430" y="20" width="340" height="1150" as="geometry" />
        </mxCell>
        <mxCell id="l5B6pVcyyVN4LYzykeho-4" value="" style="rounded=0;whiteSpace=wrap;html=1;fontStyle=1;fontSize=14;" vertex="1" parent="1">
          <mxGeometry x="-770" y="20" width="210" height="970" as="geometry" />
        </mxCell>
        <mxCell id="l5B6pVcyyVN4LYzykeho-5" style="edgeStyle=orthogonalEdgeStyle;rounded=0;orthogonalLoop=1;jettySize=auto;html=1;fontStyle=1;fontSize=14;" edge="1" source="l5B6pVcyyVN4LYzykeho-6" target="l5B6pVcyyVN4LYzykeho-17" parent="1">
          <mxGeometry relative="1" as="geometry" />
        </mxCell>
        <mxCell id="l5B6pVcyyVN4LYzykeho-6" value="USER CONTROLLER" style="whiteSpace=wrap;html=1;aspect=fixed;fontStyle=1;fontSize=14;" vertex="1" parent="1">
          <mxGeometry x="-730" y="90" width="130" height="130" as="geometry" />
        </mxCell>
        <mxCell id="l5B6pVcyyVN4LYzykeho-7" style="edgeStyle=orthogonalEdgeStyle;rounded=0;orthogonalLoop=1;jettySize=auto;html=1;fontStyle=1;fontSize=14;" edge="1" source="l5B6pVcyyVN4LYzykeho-9" target="l5B6pVcyyVN4LYzykeho-27" parent="1">
          <mxGeometry relative="1" as="geometry" />
        </mxCell>
        <mxCell id="l5B6pVcyyVN4LYzykeho-8" style="edgeStyle=orthogonalEdgeStyle;rounded=0;orthogonalLoop=1;jettySize=auto;html=1;entryX=0;entryY=0.75;entryDx=0;entryDy=0;fontStyle=1;fontSize=14;" edge="1" source="l5B6pVcyyVN4LYzykeho-9" target="l5B6pVcyyVN4LYzykeho-22" parent="1">
          <mxGeometry relative="1" as="geometry">
            <Array as="points">
              <mxPoint x="-510" y="675" />
              <mxPoint x="-510" y="538" />
            </Array>
          </mxGeometry>
        </mxCell>
        <mxCell id="l5B6pVcyyVN4LYzykeho-9" value="SENSOR DATA CONTROLLER" style="whiteSpace=wrap;html=1;aspect=fixed;fontStyle=1;fontSize=14;" vertex="1" parent="1">
          <mxGeometry x="-730" y="610" width="130" height="130" as="geometry" />
        </mxCell>
        <mxCell id="l5B6pVcyyVN4LYzykeho-10" style="edgeStyle=orthogonalEdgeStyle;rounded=0;orthogonalLoop=1;jettySize=auto;html=1;fontStyle=1;fontSize=14;" edge="1" source="l5B6pVcyyVN4LYzykeho-11" target="l5B6pVcyyVN4LYzykeho-30" parent="1">
          <mxGeometry relative="1" as="geometry" />
        </mxCell>
        <mxCell id="l5B6pVcyyVN4LYzykeho-11" value="DATA&lt;br style=&quot;font-size: 14px;&quot;&gt;CONTROLLER" style="whiteSpace=wrap;html=1;aspect=fixed;fontStyle=1;fontSize=14;" vertex="1" parent="1">
          <mxGeometry x="-730" y="800" width="130" height="130" as="geometry" />
        </mxCell>
        <mxCell id="l5B6pVcyyVN4LYzykeho-12" value="SIREN INFO CONTROLLER" style="whiteSpace=wrap;html=1;aspect=fixed;fontStyle=1;fontSize=14;" vertex="1" parent="1">
          <mxGeometry x="-730" y="440" width="130" height="130" as="geometry" />
        </mxCell>
        <mxCell id="l5B6pVcyyVN4LYzykeho-13" style="edgeStyle=orthogonalEdgeStyle;rounded=0;orthogonalLoop=1;jettySize=auto;html=1;fontStyle=1;fontSize=14;" edge="1" source="l5B6pVcyyVN4LYzykeho-15" target="l5B6pVcyyVN4LYzykeho-20" parent="1">
          <mxGeometry relative="1" as="geometry" />
        </mxCell>
        <mxCell id="l5B6pVcyyVN4LYzykeho-14" style="edgeStyle=orthogonalEdgeStyle;rounded=0;orthogonalLoop=1;jettySize=auto;html=1;entryX=0;entryY=0.25;entryDx=0;entryDy=0;fontStyle=1;fontSize=14;" edge="1" source="l5B6pVcyyVN4LYzykeho-15" target="l5B6pVcyyVN4LYzykeho-22" parent="1">
          <mxGeometry relative="1" as="geometry">
            <Array as="points">
              <mxPoint x="-510" y="325" />
              <mxPoint x="-510" y="473" />
            </Array>
          </mxGeometry>
        </mxCell>
        <mxCell id="l5B6pVcyyVN4LYzykeho-15" value="DEVICE CONTROLLER" style="whiteSpace=wrap;html=1;aspect=fixed;fontStyle=1;fontSize=14;" vertex="1" parent="1">
          <mxGeometry x="-730" y="260" width="130" height="130" as="geometry" />
        </mxCell>
        <mxCell id="l5B6pVcyyVN4LYzykeho-16" style="edgeStyle=orthogonalEdgeStyle;rounded=0;orthogonalLoop=1;jettySize=auto;html=1;fontStyle=1;fontSize=14;" edge="1" source="l5B6pVcyyVN4LYzykeho-17" target="l5B6pVcyyVN4LYzykeho-32" parent="1">
          <mxGeometry relative="1" as="geometry" />
        </mxCell>
        <mxCell id="l5B6pVcyyVN4LYzykeho-17" value="USER &lt;br style=&quot;font-size: 14px;&quot;&gt;SERVICE" style="whiteSpace=wrap;html=1;aspect=fixed;fontStyle=1;fontSize=14;" vertex="1" parent="1">
          <mxGeometry x="-320" y="90" width="130" height="130" as="geometry" />
        </mxCell>
        <mxCell id="l5B6pVcyyVN4LYzykeho-18" style="edgeStyle=orthogonalEdgeStyle;rounded=0;orthogonalLoop=1;jettySize=auto;html=1;fontStyle=1;fontSize=14;" edge="1" source="l5B6pVcyyVN4LYzykeho-20" target="l5B6pVcyyVN4LYzykeho-34" parent="1">
          <mxGeometry relative="1" as="geometry" />
        </mxCell>
        <mxCell id="l5B6pVcyyVN4LYzykeho-19" style="edgeStyle=orthogonalEdgeStyle;rounded=0;orthogonalLoop=1;jettySize=auto;html=1;entryX=0;entryY=0.75;entryDx=0;entryDy=0;fontStyle=1;fontSize=14;" edge="1" source="l5B6pVcyyVN4LYzykeho-20" target="l5B6pVcyyVN4LYzykeho-32" parent="1">
          <mxGeometry relative="1" as="geometry">
            <Array as="points">
              <mxPoint y="325" />
              <mxPoint y="188" />
            </Array>
          </mxGeometry>
        </mxCell>
        <mxCell id="l5B6pVcyyVN4LYzykeho-20" value="DEVICE &lt;br style=&quot;font-size: 14px;&quot;&gt;SERVICE" style="whiteSpace=wrap;html=1;aspect=fixed;fontStyle=1;fontSize=14;" vertex="1" parent="1">
          <mxGeometry x="-320" y="260" width="130" height="130" as="geometry" />
        </mxCell>
        <mxCell id="l5B6pVcyyVN4LYzykeho-21" style="edgeStyle=orthogonalEdgeStyle;rounded=0;orthogonalLoop=1;jettySize=auto;html=1;entryX=0;entryY=0.75;entryDx=0;entryDy=0;fontStyle=1;fontSize=14;" edge="1" source="l5B6pVcyyVN4LYzykeho-22" target="l5B6pVcyyVN4LYzykeho-34" parent="1">
          <mxGeometry relative="1" as="geometry">
            <Array as="points">
              <mxPoint y="505" />
              <mxPoint y="358" />
            </Array>
          </mxGeometry>
        </mxCell>
        <mxCell id="l5B6pVcyyVN4LYzykeho-22" value="DEVICE ERROR&lt;br style=&quot;font-size: 14px;&quot;&gt;SERVICE" style="whiteSpace=wrap;html=1;aspect=fixed;fontStyle=1;fontSize=14;" vertex="1" parent="1">
          <mxGeometry x="-320" y="440" width="130" height="130" as="geometry" />
        </mxCell>
        <mxCell id="l5B6pVcyyVN4LYzykeho-23" style="edgeStyle=orthogonalEdgeStyle;rounded=0;orthogonalLoop=1;jettySize=auto;html=1;entryX=0;entryY=0.5;entryDx=0;entryDy=0;fontStyle=1;fontSize=14;" edge="1" source="l5B6pVcyyVN4LYzykeho-27" target="l5B6pVcyyVN4LYzykeho-35" parent="1">
          <mxGeometry relative="1" as="geometry" />
        </mxCell>
        <mxCell id="l5B6pVcyyVN4LYzykeho-24" style="edgeStyle=orthogonalEdgeStyle;rounded=0;orthogonalLoop=1;jettySize=auto;html=1;entryX=0;entryY=0.75;entryDx=0;entryDy=0;fontStyle=1;fontSize=14;" edge="1" source="l5B6pVcyyVN4LYzykeho-27" target="l5B6pVcyyVN4LYzykeho-20" parent="1">
          <mxGeometry relative="1" as="geometry">
            <mxPoint x="-120" y="410" as="targetPoint" />
            <Array as="points">
              <mxPoint x="-140" y="675" />
              <mxPoint x="-140" y="410" />
              <mxPoint x="-350" y="410" />
              <mxPoint x="-350" y="358" />
            </Array>
          </mxGeometry>
        </mxCell>
        <mxCell id="l5B6pVcyyVN4LYzykeho-25" style="edgeStyle=orthogonalEdgeStyle;rounded=0;orthogonalLoop=1;jettySize=auto;html=1;entryX=0;entryY=0.5;entryDx=0;entryDy=0;fontStyle=1;fontSize=14;" edge="1" source="l5B6pVcyyVN4LYzykeho-27" target="l5B6pVcyyVN4LYzykeho-36" parent="1">
          <mxGeometry relative="1" as="geometry" />
        </mxCell>
        <mxCell id="l5B6pVcyyVN4LYzykeho-26" style="edgeStyle=orthogonalEdgeStyle;rounded=0;orthogonalLoop=1;jettySize=auto;html=1;entryX=0;entryY=0.5;entryDx=0;entryDy=0;fontStyle=1;fontSize=14;" edge="1" source="l5B6pVcyyVN4LYzykeho-27" target="l5B6pVcyyVN4LYzykeho-37" parent="1">
          <mxGeometry relative="1" as="geometry">
            <Array as="points">
              <mxPoint x="-160" y="675" />
              <mxPoint x="-160" y="1150" />
              <mxPoint x="-380" y="1150" />
              <mxPoint x="-380" y="1045" />
            </Array>
          </mxGeometry>
        </mxCell>
        <mxCell id="l5B6pVcyyVN4LYzykeho-27" value="SENSOR DATA&lt;br style=&quot;font-size: 14px;&quot;&gt;SERVICE" style="whiteSpace=wrap;html=1;aspect=fixed;fontStyle=1;fontSize=14;" vertex="1" parent="1">
          <mxGeometry x="-320" y="610" width="130" height="130" as="geometry" />
        </mxCell>
        <mxCell id="l5B6pVcyyVN4LYzykeho-28" style="edgeStyle=orthogonalEdgeStyle;rounded=0;orthogonalLoop=1;jettySize=auto;html=1;entryX=0;entryY=0.75;entryDx=0;entryDy=0;fontStyle=1;fontSize=14;" edge="1" source="l5B6pVcyyVN4LYzykeho-30" target="l5B6pVcyyVN4LYzykeho-32" parent="1">
          <mxGeometry relative="1" as="geometry">
            <Array as="points">
              <mxPoint x="110" y="890" />
              <mxPoint x="110" y="188" />
            </Array>
          </mxGeometry>
        </mxCell>
        <mxCell id="l5B6pVcyyVN4LYzykeho-29" style="edgeStyle=orthogonalEdgeStyle;rounded=0;orthogonalLoop=1;jettySize=auto;html=1;entryX=0;entryY=0.5;entryDx=0;entryDy=0;fontStyle=1;fontSize=14;" edge="1" source="l5B6pVcyyVN4LYzykeho-30" target="l5B6pVcyyVN4LYzykeho-34" parent="1">
          <mxGeometry relative="1" as="geometry">
            <Array as="points">
              <mxPoint x="160" y="890" />
              <mxPoint x="160" y="325" />
            </Array>
          </mxGeometry>
        </mxCell>
        <mxCell id="l5B6pVcyyVN4LYzykeho-30" value="DATA ERASER&lt;br style=&quot;font-size: 14px;&quot;&gt;SERVICE" style="whiteSpace=wrap;html=1;aspect=fixed;fontStyle=1;fontSize=14;" vertex="1" parent="1">
          <mxGeometry x="-320" y="800" width="130" height="130" as="geometry" />
        </mxCell>
        <mxCell id="l5B6pVcyyVN4LYzykeho-31" value="SERVICES" style="text;html=1;align=center;verticalAlign=middle;resizable=0;points=[];autosize=1;strokeColor=none;fillColor=none;fontStyle=1;fontSize=22;" vertex="1" parent="1">
          <mxGeometry x="-320" y="30" width="130" height="40" as="geometry" />
        </mxCell>
        <mxCell id="l5B6pVcyyVN4LYzykeho-32" value="USER DATA&lt;br style=&quot;font-size: 14px;&quot;&gt;REPO" style="whiteSpace=wrap;html=1;aspect=fixed;fontStyle=1;fontSize=14;" vertex="1" parent="1">
          <mxGeometry x="300" y="90" width="130" height="130" as="geometry" />
        </mxCell>
        <mxCell id="l5B6pVcyyVN4LYzykeho-33" value="REPOSITORIES" style="text;html=1;align=center;verticalAlign=middle;resizable=0;points=[];autosize=1;strokeColor=none;fillColor=none;fontStyle=1;fontSize=22;" vertex="1" parent="1">
          <mxGeometry x="270" y="30" width="190" height="40" as="geometry" />
        </mxCell>
        <mxCell id="l5B6pVcyyVN4LYzykeho-34" value="DEVICE DATA&lt;br style=&quot;font-size: 14px;&quot;&gt;REPO" style="whiteSpace=wrap;html=1;aspect=fixed;fontStyle=1;fontSize=14;" vertex="1" parent="1">
          <mxGeometry x="290" y="260" width="130" height="130" as="geometry" />
        </mxCell>
        <mxCell id="l5B6pVcyyVN4LYzykeho-35" value="SENSOR METADATA&lt;br style=&quot;font-size: 14px;&quot;&gt;REPO" style="whiteSpace=wrap;html=1;aspect=fixed;fontStyle=1;fontSize=14;" vertex="1" parent="1">
          <mxGeometry x="290" y="420" width="130" height="130" as="geometry" />
        </mxCell>
        <mxCell id="l5B6pVcyyVN4LYzykeho-36" value="SENSOR DATA&lt;br style=&quot;font-size: 14px;&quot;&gt;REPO" style="whiteSpace=wrap;html=1;aspect=fixed;fontStyle=1;fontSize=14;" vertex="1" parent="1">
          <mxGeometry x="290" y="570" width="130" height="130" as="geometry" />
        </mxCell>
        <mxCell id="l5B6pVcyyVN4LYzykeho-37" value="EMAIL SENDER&lt;br style=&quot;font-size: 14px;&quot;&gt;SERVICE" style="whiteSpace=wrap;html=1;aspect=fixed;fontStyle=1;fontSize=14;" vertex="1" parent="1">
          <mxGeometry x="-320" y="980" width="130" height="130" as="geometry" />
        </mxCell>
        <mxCell id="l5B6pVcyyVN4LYzykeho-38" style="edgeStyle=orthogonalEdgeStyle;rounded=0;orthogonalLoop=1;jettySize=auto;html=1;fontStyle=1;fontSize=14;" edge="1" source="l5B6pVcyyVN4LYzykeho-39" target="l5B6pVcyyVN4LYzykeho-4" parent="1">
          <mxGeometry relative="1" as="geometry" />
        </mxCell>
        <mxCell id="l5B6pVcyyVN4LYzykeho-39" value="MIDDLEWARES" style="whiteSpace=wrap;html=1;aspect=fixed;fontStyle=1;fontSize=14;" vertex="1" parent="1">
          <mxGeometry x="-1030" y="440" width="130" height="130" as="geometry" />
        </mxCell>
        <mxCell id="l5B6pVcyyVN4LYzykeho-40" style="edgeStyle=orthogonalEdgeStyle;rounded=0;orthogonalLoop=1;jettySize=auto;html=1;exitX=1;exitY=0.5;exitDx=0;exitDy=0;fontStyle=1;fontSize=14;" edge="1" source="l5B6pVcyyVN4LYzykeho-41" target="l5B6pVcyyVN4LYzykeho-1" parent="1">
          <mxGeometry relative="1" as="geometry">
            <mxPoint x="-1370" y="565" as="sourcePoint" />
            <Array as="points" />
          </mxGeometry>
        </mxCell>
        <mxCell id="l5B6pVcyyVN4LYzykeho-41" value="USER" style="whiteSpace=wrap;html=1;aspect=fixed;fontStyle=1;fontSize=14;" vertex="1" parent="1">
          <mxGeometry x="-1490" y="515" width="130" height="130" as="geometry" />
        </mxCell>
        <mxCell id="l5B6pVcyyVN4LYzykeho-42" style="edgeStyle=orthogonalEdgeStyle;rounded=0;orthogonalLoop=1;jettySize=auto;html=1;fontStyle=1;fontSize=14;" edge="1" source="l5B6pVcyyVN4LYzykeho-43" target="l5B6pVcyyVN4LYzykeho-39" parent="1">
          <mxGeometry relative="1" as="geometry" />
        </mxCell>
        <mxCell id="l5B6pVcyyVN4LYzykeho-43" value="AUTHENTICATION&lt;br style=&quot;font-size: 14px;&quot;&gt;AND&lt;br style=&quot;font-size: 14px;&quot;&gt;AUTHORIZATION" style="whiteSpace=wrap;html=1;aspect=fixed;fontStyle=1;fontSize=14;" vertex="1" parent="1">
          <mxGeometry x="-1250" y="440" width="130" height="130" as="geometry" />
        </mxCell>
        <mxCell id="l5B6pVcyyVN4LYzykeho-48" value="CONTROLLERS" style="text;html=1;align=center;verticalAlign=middle;resizable=0;points=[];autosize=1;strokeColor=none;fillColor=none;fontStyle=1;fontSize=22;" vertex="1" parent="1">
          <mxGeometry x="-760" y="30" width="190" height="40" as="geometry" />
        </mxCell>
      </root>
    </mxGraphModel>
  </diagram>
</mxfile>
